<?xml version="1.0" standalone="no"?>
<!DOCTYPE svg PUBLIC "-//W3C//DTD SVG 20010904//EN"
 "http://www.w3.org/TR/2001/REC-SVG-20010904/DTD/svg10.dtd">
<svg version="1.0" xmlns="http://www.w3.org/2000/svg"
 width="260.000000pt" height="260.000000pt" viewBox="0 0 260.000000 260.000000"
 preserveAspectRatio="xMidYMid meet">
<metadata>
Created by potrace 1.14, written by Peter Selinger 2001-2017
</metadata>
<g transform="translate(0.000000,260.000000) scale(0.100000,-0.100000)"
fill="#000000" stroke="none">
<path d="M8 2593 c7 -3 16 -2 19 1 4 3 -2 6 -13 5 -11 0 -14 -3 -6 -6z"/>
<path d="M2558 2593 c7 -3 16 -2 19 1 4 3 -2 6 -13 5 -11 0 -14 -3 -6 -6z"/>
<path d="M1750 2293 c-22 -12 -75 -70 -149 -164 l-113 -147 -112 58 c-190 100
-377 148 -571 148 -471 -1 -652 -365 -441 -884 199 -488 713 -934 1153 -999
199 -29 356 14 457 126 85 94 114 183 114 341 0 191 -57 374 -185 598 l-32 55
30 35 31 34 19 -24 c45 -59 159 -235 226 -350 40 -68 73 -121 73 -116 0 17
-72 188 -107 254 -20 37 -66 112 -102 167 -36 55 -67 105 -69 112 -2 7 18 40
45 73 26 34 75 96 108 138 85 108 96 128 102 180 8 76 -26 149 -105 230 -118
121 -283 181 -372 135z m210 -79 c70 -38 147 -110 180 -168 33 -57 40 -129 15
-162 -14 -19 -14 -19 -15 2 0 11 -14 42 -31 70 -76 121 -216 222 -333 239
l-47 7 22 24 c37 39 123 35 209 -12z m-954 -125 c99 -17 224 -59 332 -110 113
-53 111 -49 58 -113 l-24 -29 -58 27 c-215 102 -466 133 -597 73 -160 -73
-227 -220 -191 -417 41 -223 206 -465 405 -596 37 -24 69 -50 73 -59 3 -8 12
-15 19 -15 21 0 581 229 593 243 6 7 57 72 114 145 116 151 101 148 163 27
124 -242 155 -480 81 -640 -137 -300 -555 -312 -987 -29 -129 86 -316 271
-405 401 -148 217 -222 424 -227 633 -6 253 103 406 325 454 79 17 245 20 326
5z m716 -81 c26 -10 66 -29 88 -43 l41 -26 -21 -29 c-11 -16 -99 -131 -196
-257 -160 -209 -178 -229 -222 -246 -91 -36 -253 -17 -260 30 -2 15 66 110
220 308 l223 286 40 -2 c22 -1 61 -11 87 -21z m-605 -119 c84 -20 200 -64 217
-80 6 -5 -15 -41 -52 -89 -203 -263 -184 -233 -199 -323 -7 -45 -27 -170 -43
-277 -17 -107 -33 -201 -35 -208 -6 -18 -36 5 -152 119 -282 278 -367 591
-207 768 100 111 264 142 471 90z m868 -103 c14 -28 25 -60 25 -73 0 -15 -75
-120 -211 -296 -250 -321 -231 -299 -252 -291 -23 8 -65 99 -72 154 -12 98 -4
112 205 385 l195 255 43 -43 c23 -23 54 -64 67 -91z m-790 -412 c63 -19 158
-19 210 -1 l40 14 1 -74 c1 -65 6 -85 36 -142 l34 -67 -158 -64 c-154 -62
-158 -63 -173 -44 -8 10 -15 22 -15 26 0 3 -17 17 -37 29 -21 12 -39 23 -41
25 -2 1 1 28 7 60 10 58 17 101 27 177 5 34 11 67 13 75 1 3 2 3 56 -14z"/>
<path d="M28 3 c6 -2 18 -2 25 0 6 3 1 5 -13 5 -14 0 -19 -2 -12 -5z"/>
</g>
</svg>
