<?xml version="1.0" encoding="UTF-8" standalone="no"?>
<svg version="1.0" width="800" height="800" id="4-cube.svg" sodipodi:docname="hedzr-4-cube.svg" inkscape:export-filename="/Users/hz/Pictures/avatar-hz/4-cube_graph.png" inkscape:export-xdpi="62.52" inkscape:export-ydpi="62.52" inkscape:version="1.1 (c4e8f9e, 2021-05-24)" xmlns:inkscape="http://www.inkscape.org/namespaces/inkscape" xmlns:sodipodi="http://sodipodi.sourceforge.net/DTD/sodipodi-0.dtd" xmlns="http://www.w3.org/2000/svg" xmlns:svg="http://www.w3.org/2000/svg">
  <defs id="defs1131" />
  <sodipodi:namedview id="namedview1129" pagecolor="#ffffff" bordercolor="#666666" borderopacity="1.0" inkscape:pageshadow="2" inkscape:pageopacity="0.0" inkscape:pagecheckerboard="0" showgrid="false" inkscape:zoom="0.94125" inkscape:cx="403.18725" inkscape:cy="406.3745" inkscape:window-width="1622" inkscape:window-height="1003" inkscape:window-x="0" inkscape:window-y="23" inkscape:window-maximized="0" inkscape:current-layer="4-cube.svg" />
  <g style="stroke:black;stroke-width:3;stroke-opacity:1" id="g1092" inkscape:export-filename="/Users/hz/Pictures/avatar-hz/hedzr-4-cube-512.png" inkscape:export-xdpi="62.52" inkscape:export-ydpi="62.52">
    <line x1="779.58197" y1="400" x2="668.40503" y2="668.40503" id="line1028" />
    <line x1="511.177" y1="511.177" x2="400" y2="779.58197" id="line1030" />
    <line x1="779.58197" y1="400" x2="511.177" y2="511.177" id="line1032" />
    <line x1="668.40503" y1="668.40503" x2="400" y2="779.58197" id="line1034" />
    <line x1="511.177" y1="288.823" x2="400" y2="557.22803" id="line1036" />
    <line x1="242.772" y1="400" x2="131.595" y2="668.40503" id="line1038" />
    <line x1="511.177" y1="288.823" x2="242.772" y2="400" id="line1040" />
    <line x1="400" y1="557.22803" x2="131.595" y2="668.40503" id="line1042" />
    <line x1="779.58197" y1="400" x2="511.177" y2="288.823" id="line1044" />
    <line x1="668.40503" y1="668.40503" x2="400" y2="557.22803" id="line1046" />
    <line x1="511.177" y1="511.177" x2="242.772" y2="400" id="line1048" />
    <line x1="400" y1="779.58197" x2="131.595" y2="668.40503" id="line1050" />
    <line x1="668.40503" y1="131.595" x2="557.22803" y2="400" id="line1052" />
    <line x1="400" y1="242.772" x2="288.823" y2="511.177" id="line1054" />
    <line x1="668.40503" y1="131.595" x2="400" y2="242.772" id="line1056" />
    <line x1="557.22803" y1="400" x2="288.823" y2="511.177" id="line1058" />
    <line x1="400" y1="20.417999" x2="288.823" y2="288.823" id="line1060" />
    <line x1="131.595" y1="131.595" x2="20.417999" y2="400" id="line1062" />
    <line x1="400" y1="20.417999" x2="131.595" y2="131.595" id="line1064" />
    <line x1="288.823" y1="288.823" x2="20.417999" y2="400" id="line1066" />
    <line x1="668.40503" y1="131.595" x2="400" y2="20.417999" id="line1068" />
    <line x1="557.22803" y1="400" x2="288.823" y2="288.823" id="line1070" />
    <line x1="400" y1="242.772" x2="131.595" y2="131.595" id="line1072" />
    <line x1="288.823" y1="511.177" x2="20.417999" y2="400" id="line1074" />
    <line x1="779.58197" y1="400" x2="668.40503" y2="131.595" id="line1076" />
    <line x1="668.40503" y1="668.40503" x2="557.22803" y2="400" id="line1078" />
    <line x1="511.177" y1="511.177" x2="400" y2="242.772" id="line1080" />
    <line x1="400" y1="779.58197" x2="288.823" y2="511.177" id="line1082" />
    <line x1="511.177" y1="288.823" x2="400" y2="20.417999" id="line1084" />
    <line x1="400" y1="557.22803" x2="288.823" y2="288.823" id="line1086" />
    <line x1="242.772" y1="400" x2="131.595" y2="131.595" id="line1088" />
    <line x1="131.595" y1="668.40503" x2="20.417999" y2="400" id="line1090" />
  </g>
  <g style="fill:red;stroke:black;stroke-width:3" id="g1126" inkscape:export-filename="/Users/hz/Pictures/avatar-hz/hedzr-4-cube-512.png" inkscape:export-xdpi="62.52" inkscape:export-ydpi="62.52">
    <circle cx="779.58197" cy="400" r="12" id="circle1094" />
    <circle cx="668.40503" cy="668.40503" r="12" id="circle1096" />
    <circle cx="511.177" cy="511.177" r="12" id="circle1098" />
    <circle cx="400" cy="779.58197" r="12" id="circle1100" />
    <circle cx="511.177" cy="288.823" r="12" id="circle1102" />
    <circle cx="400" cy="557.22803" r="12" id="circle1104" />
    <circle cx="242.772" cy="400" r="12" id="circle1106" />
    <circle cx="131.595" cy="668.40503" r="12" id="circle1108" />
    <circle cx="668.40503" cy="131.595" r="12" id="circle1110" />
    <circle cx="557.22803" cy="400" r="12" id="circle1112" />
    <circle cx="400" cy="242.772" r="12" id="circle1114" />
    <circle cx="288.823" cy="511.177" r="12" id="circle1116" />
    <circle cx="400" cy="20.417999" r="12" id="circle1118" />
    <circle cx="288.823" cy="288.823" r="12" id="circle1120" />
    <circle cx="131.595" cy="131.595" r="12" id="circle1122" />
    <circle cx="20.417999" cy="400" r="12" id="circle1124" />
  </g>
  <path style="fill:#e6e6e6;stroke:#454545;stroke-width:1.06242" d="m 29.857093,389.9179 c -1.982758,-2.04561 -1.93585,-2.27345 2.894659,-14.05969 2.700542,-6.58922 25.212514,-60.98437 50.026603,-120.87813 l 45.116525,-108.89774 3.58387,-0.31795 3.58387,-0.31795 36.21248,87.43614 c 30.55512,73.77625 35.93882,87.54035 34.46072,88.10314 -0.96346,0.36685 -39.52068,16.33527 -85.6827,35.48538 -46.162018,19.15011 -84.887117,34.97761 -86.055776,35.17224 -1.168659,0.19462 -3.031772,-0.58184 -4.140251,-1.72544 z" id="path1301" inkscape:export-filename="/Users/hz/Pictures/avatar-hz/hedzr-4-cube-512.png" inkscape:export-xdpi="62.52" inkscape:export-ydpi="62.52" />
  <path style="fill:#e6e6e6;stroke:#454545;stroke-width:1.06242" d="m 175.1547,231.26172 -36.18423,-87.30422 2.44659,-2.48838 2.44659,-2.48839 86.36831,35.75739 c 47.50256,19.66656 86.74979,36.13195 87.21604,36.58977 0.46625,0.45781 -4.99588,14.95588 -12.13806,32.21794 l -12.9858,31.38555 -5.32872,0.51202 c -6.39649,0.61463 -10.79599,4.7326 -11.85523,11.09661 -0.36902,2.21707 -0.82083,4.53246 -1.00401,5.14531 -0.18319,0.61286 -12.93479,6.31135 -28.33688,12.66334 -15.4021,6.35199 -29.45654,12.14942 -31.23209,12.88318 l -3.22828,1.33411 z" id="path1340" inkscape:export-filename="/Users/hz/Pictures/avatar-hz/hedzr-4-cube-512.png" inkscape:export-xdpi="62.52" inkscape:export-ydpi="62.52" />
  <path style="fill:#e6e6e6;stroke:#454545;stroke-width:1.06242" d="M 232.13811,171.03323 145.55113,135.0747 v -3.47728 -3.47729 L 266.63711,77.962665 387.7231,27.805198 l 2.45479,2.454789 2.45479,2.45479 -36.01662,86.915883 c -19.80914,47.80373 -36.43835,87.01605 -36.95379,87.13849 -0.51544,0.12243 -39.90131,-15.95873 -87.52416,-35.73592 z" id="path1379" inkscape:export-filename="/Users/hz/Pictures/avatar-hz/hedzr-4-cube-512.png" inkscape:export-xdpi="62.52" inkscape:export-ydpi="62.52" />
  <path style="fill:#e6e6e6;stroke:#454545;stroke-width:1.06242" d="m 356.46685,222.44887 c -17.22344,-7.14837 -31.42821,-13.39063 -31.56616,-13.87169 -0.13794,-0.48106 15.9072,-39.8388 35.65586,-87.46164 l 35.90666,-86.586988 h 3.54646 3.54646 l 35.90178,86.586988 c 19.74598,47.62284 35.78676,86.98058 35.64619,87.46164 -0.14058,0.48106 -14.34751,6.72332 -31.57095,13.87169 l -31.31535,12.99704 -1.9162,-2.4251 c -1.05391,-1.33381 -3.80291,-2.93314 -6.1089,-3.55408 -5.30901,-1.42957 -11.81747,0.16634 -14.4943,3.55408 l -1.9162,2.4251 z" id="path1418" inkscape:export-filename="/Users/hz/Pictures/avatar-hz/hedzr-4-cube-512.png" inkscape:export-xdpi="62.52" inkscape:export-ydpi="62.52" />
  <path style="fill:#e6e6e6;stroke:#454545;stroke-width:1.06242" d="m 478.68423,204.78088 c -0.51945,-1.31474 -16.77061,-40.57511 -36.11369,-87.24527 l -35.16922,-84.854831 2.44328,-2.443279 2.44328,-2.443279 121.08049,50.166059 121.0805,50.16606 v 3.47181 3.4718 l -87.00938,36.05069 c -47.85515,19.82786 -87.1897,36.05067 -87.41009,36.05067 -0.22039,0 -0.82572,-1.07569 -1.34517,-2.39043 z" id="path1457" inkscape:export-filename="/Users/hz/Pictures/avatar-hz/hedzr-4-cube-512.png" inkscape:export-xdpi="62.52" inkscape:export-ydpi="62.52" />
  <path style="fill:#e6e6e6;stroke:#454545;stroke-width:1.06242" d="m 557.25919,305.61192 -31.31983,-13.00895 -0.80795,-4.73282 c -1.38607,-8.11925 -6.25468,-12.65777 -13.61136,-12.68849 l -3.75219,-0.0157 -13.00472,-31.52994 c -7.1526,-17.34146 -12.63542,-31.88875 -12.18406,-32.3273 0.45136,-0.43854 39.68447,-16.89368 87.18469,-36.56697 l 86.36404,-35.76961 2.457,2.49266 2.45701,2.49266 -35.41992,85.52457 c -19.48096,47.03851 -35.7851,86.33777 -36.23141,87.33168 -0.7111,1.58357 -4.6857,0.19792 -32.1313,-11.20183 z" id="path1496" inkscape:export-filename="/Users/hz/Pictures/avatar-hz/hedzr-4-cube-512.png" inkscape:export-xdpi="62.52" inkscape:export-ydpi="62.52" />
  <path style="fill:#e6e6e6;stroke:#454545;stroke-width:1.06242" d="m 736.25498,379.85477 c -15.77689,-6.60217 -54.5604,-22.71635 -86.18557,-35.80928 l -57.50031,-23.80533 36.20361,-87.3957 36.20361,-87.39569 3.58191,0.31678 3.5819,0.31679 47.73718,115.27224 c 26.25545,63.39974 48.77784,117.78367 50.04976,120.85319 l 2.31257,5.58093 -2.27726,2.12159 c -1.25248,1.16687 -2.89485,2.08262 -3.6497,2.03501 -0.75484,-0.0476 -14.28081,-5.48835 -30.0577,-12.09053 z" id="path1535" inkscape:export-filename="/Users/hz/Pictures/avatar-hz/hedzr-4-cube-512.png" inkscape:export-xdpi="62.52" inkscape:export-ydpi="62.52" />
  <path style="fill:#e6e6e6;stroke:#454545;stroke-width:1.06242" d="m 629.01779,567.64743 c -19.77786,-47.79706 -36.07573,-87.14278 -36.21749,-87.43495 -0.26274,-0.54148 172.50966,-72.26566 174.04359,-72.2519 0.46268,0.004 1.84943,0.94682 3.08167,2.09483 l 2.24043,2.08727 -4.91224,11.98975 c -2.70173,6.59436 -25.20997,60.99373 -50.0183,120.88749 l -45.10605,108.89774 -3.57594,0.31675 -3.57593,0.31675 z" id="path1574" inkscape:export-filename="/Users/hz/Pictures/avatar-hz/hedzr-4-cube-512.png" inkscape:export-xdpi="62.52" inkscape:export-ydpi="62.52" />
  <path style="fill:#e6e6e6;stroke:#454545;stroke-width:1.06242" d="m 569.63192,625.32273 c -46.64932,-19.40041 -85.52194,-35.7238 -86.38358,-36.2742 -1.30704,-0.8349 0.59459,-6.23794 11.47645,-32.60763 l 13.04307,-31.6069 3.75219,-0.0157 c 7.35668,-0.0307 12.22529,-4.56923 13.61136,-12.68849 l 0.80795,-4.73282 31.31983,-13.00895 c 27.4478,-11.40066 31.42026,-12.78553 32.1322,-11.20183 0.4468,0.99391 16.74853,40.29317 36.22604,87.33168 l 35.41367,85.52457 -2.2287,2.37208 c -1.22578,1.30464 -2.70678,2.32923 -3.29111,2.27686 -0.58433,-0.0524 -39.23005,-15.9683 -85.87937,-35.36871 z" id="path1613" inkscape:export-filename="/Users/hz/Pictures/avatar-hz/hedzr-4-cube-512.png" inkscape:export-xdpi="62.52" inkscape:export-ydpi="62.52" />
  <path style="fill:#e6e6e6;stroke:#454545;stroke-width:1.06242" d="m 409.77601,769.7271 -2.36069,-2.45275 35.74026,-86.42602 c 19.65715,-47.53431 36.06776,-86.79193 36.46802,-87.23915 0.40027,-0.44722 39.89969,15.41702 87.77652,35.25387 l 87.04875,36.067 v 3.4734 3.47339 l -117.39708,48.64071 c -64.56839,26.75239 -119.08863,49.32057 -121.15608,50.15151 -3.54162,1.42342 -3.89553,1.36894 -6.1197,-0.94196 z" id="path1652" inkscape:export-filename="/Users/hz/Pictures/avatar-hz/hedzr-4-cube-512.png" inkscape:export-xdpi="62.52" inkscape:export-ydpi="62.52" />
  <path style="fill:#e6e6e6;stroke:#454545;stroke-width:1.06242" d="m 396.50113,765.26572 c -2.11257,-3.54146 -71.93953,-173.8468 -71.47107,-174.31526 0.33079,-0.33079 14.58535,-6.4053 31.67679,-13.4989 l 31.07535,-12.89747 1.9162,2.4251 c 2.32748,2.94562 8.80238,4.84788 13.38292,3.93177 1.85297,-0.37059 4.71436,-1.93052 6.35863,-3.46651 l 2.9896,-2.79269 31.20947,12.9482 c 17.16522,7.12151 31.3245,13.3418 31.46508,13.82286 0.14057,0.48106 -15.89705,39.8388 -35.63915,87.46164 l -35.89475,86.58699 -3.27902,0.32548 c -1.80346,0.17902 -3.50898,-0.06 -3.79005,-0.53121 z" id="path1691" inkscape:export-filename="/Users/hz/Pictures/avatar-hz/hedzr-4-cube-512.png" inkscape:export-xdpi="62.52" inkscape:export-ydpi="62.52" />
  <path style="fill:#e6e6e6;stroke:#454545;stroke-width:1.06242" d="M 266.63959,722.0337 145.55113,671.87754 v -3.47548 -3.47549 l 87.05457,-36.05945 c 47.88001,-19.83269 87.38131,-35.69615 87.78066,-35.25213 0.39934,0.44403 16.81743,39.70218 36.48463,87.24035 l 35.75855,86.43302 -2.45076,2.45075 -2.45074,2.45075 z" id="path1730" inkscape:export-filename="/Users/hz/Pictures/avatar-hz/hedzr-4-cube-512.png" inkscape:export-xdpi="62.52" inkscape:export-ydpi="62.52" />
  <path style="fill:#e6e6e6;stroke:#454545;stroke-width:1.06242" d="M 127.0591,652.05843 C 126.55884,650.74369 104.86031,598.27357 78.840151,535.45817 52.81999,472.64276 30.708713,419.19052 29.703978,416.6754 c -1.79464,-4.49246 -1.785741,-4.61118 0.505641,-6.74593 1.282836,-1.19515 3.137959,-1.95119 4.122495,-1.68009 0.984535,0.27109 39.558988,16.15402 85.721006,35.2954 46.16202,19.14137 84.71966,35.10265 85.68366,35.4695 1.47927,0.56294 -3.89472,14.29969 -34.44659,88.05079 l -36.19929,87.3838 h -3.56112 c -2.71524,0 -3.77717,-0.56781 -4.47068,-2.39044 z" id="path1769" inkscape:export-filename="/Users/hz/Pictures/avatar-hz/hedzr-4-cube-512.png" inkscape:export-xdpi="62.52" inkscape:export-ydpi="62.52" />
  <path style="fill:#e6e6e6;stroke:#454545;stroke-width:1.06242" d="M 128.02125,442.35456 C 83.904382,424.04984 44.820717,407.81463 41.168659,406.27632 c -6.235346,-2.62645 -6.640107,-3.01028 -6.640107,-6.29672 0,-3.34182 0.347639,-3.6443 7.702524,-6.70193 62.739644,-26.08263 165.169024,-68.38732 165.919634,-68.52701 0.53867,-0.10025 6.84692,13.91862 14.01833,31.15304 12.72707,30.58582 12.99269,31.38627 11.10556,33.46613 -5.88714,6.48838 -5.89415,14.73542 -0.0181,21.25434 1.86411,2.06804 1.57501,2.94836 -10.81563,32.93493 -7.002,16.94555 -13.06307,31.09509 -13.46903,31.44343 -0.40599,0.34833 -36.83377,-14.34325 -80.95063,-32.64797 z" id="path1808" inkscape:export-filename="/Users/hz/Pictures/avatar-hz/hedzr-4-cube-512.png" inkscape:export-xdpi="62.52" inkscape:export-ydpi="62.52" />
  <path style="fill:#e6e6e6;stroke:#454545;stroke-width:1.06242" d="m 141.20503,658.44972 -2.22126,-2.40722 35.92023,-86.58699 c 19.75613,-47.62284 36.0545,-86.91328 36.21861,-87.31208 0.1641,-0.3988 14.38975,5.10523 31.61255,12.23117 l 31.31419,12.95627 0.8136,4.7659 c 1.39155,8.15146 6.24951,12.6908 13.61447,12.72157 l 3.74965,0.0157 13.03433,31.50286 c 7.16888,17.32658 12.65285,31.87809 12.1866,32.3367 -0.81923,0.8058 -169.20431,70.87352 -172.42808,71.75008 -0.87649,0.23832 -2.59319,-0.64995 -3.81489,-1.97392 z" id="path1847" inkscape:export-filename="/Users/hz/Pictures/avatar-hz/hedzr-4-cube-512.png" inkscape:export-xdpi="62.52" inkscape:export-ydpi="62.52" />
  <path style="fill:#e6e6e6;stroke:#454545;stroke-width:1.06242" d="m 244.35591,490.59032 c -16.94555,-7.06071 -30.93369,-12.92573 -31.08476,-13.03337 -0.15107,-0.10764 5.66852,-14.49442 12.93242,-31.97062 10.00233,-24.0646 13.611,-31.69979 14.87163,-31.46532 3.13188,0.5825 10.07083,-1.95234 11.98869,-4.37953 l 1.91619,-2.4251 31.07535,12.89746 c 17.09144,7.09361 31.34421,13.16632 31.67281,13.49493 0.32861,0.32861 -5.24258,14.75107 -12.38042,32.04993 -12.76601,30.93894 -13.02783,31.45246 -16.03629,31.45246 -3.80131,0 -9.42018,2.28452 -11.35397,4.6163 -0.80196,0.96701 -1.75813,1.72272 -2.12483,1.67936 -0.3667,-0.0434 -14.53127,-5.85578 -31.47682,-12.9165 z" id="path1886" inkscape:export-filename="/Users/hz/Pictures/avatar-hz/hedzr-4-cube-512.png" inkscape:export-xdpi="62.52" inkscape:export-ydpi="62.52" />
  <path style="fill:#e6e6e6;stroke:#454545;stroke-width:1.06242" d="m 321.345,584.06375 c -0.57916,-1.31475 -6.46086,-15.45785 -13.07045,-31.42912 l -12.01744,-29.03868 3.00026,-3.21179 c 1.65015,-1.76649 3.07105,-4.47598 3.15757,-6.02108 0.0865,-1.54511 0.20603,-3.67834 0.2656,-4.74051 0.0843,-1.50299 7.13084,-4.83805 31.77942,-15.04084 l 31.67111,-13.10964 1.54114,3.35426 c 0.84763,1.84484 6.7626,16.02358 13.14438,31.50831 11.29915,27.41626 11.5529,28.20973 9.68279,30.27889 -3.01367,3.33442 -4.3108,6.46392 -4.3108,10.40039 v 3.63438 l -31.14248,12.90293 c -17.12837,7.09661 -31.48125,12.90293 -31.89529,12.90293 -0.41404,0 -1.22666,-1.07569 -1.80581,-2.39043 z" id="path1925" inkscape:export-filename="/Users/hz/Pictures/avatar-hz/hedzr-4-cube-512.png" inkscape:export-xdpi="62.52" inkscape:export-ydpi="62.52" />
  <path style="fill:#e6e6e6;stroke:#454545;stroke-width:1.06242" d="m 298.43615,501.17686 -2.22786,-2.37208 12.88013,-31.01526 c 7.08407,-17.05839 13.15522,-31.29035 13.49144,-31.62657 0.33622,-0.33623 7.19406,2.14654 15.23963,5.51725 l 14.62831,6.12856 6.11115,14.82923 6.11114,14.82922 -31.47183,13.04606 c -17.30951,7.17534 -31.71088,13.04373 -32.00304,13.04087 -0.29217,-0.003 -1.53375,-1.07263 -2.75907,-2.37728 z" id="path1964" inkscape:export-filename="/Users/hz/Pictures/avatar-hz/hedzr-4-cube-512.png" inkscape:export-xdpi="62.52" inkscape:export-ydpi="62.52" />
  <path style="fill:#e6e6e6;stroke:#454545;stroke-width:1.06242" d="m 287.11819,416.21143 -30.54448,-12.79828 v -3.41188 -3.41188 L 288.007,383.56597 c 17.36711,-7.19552 31.82701,-12.61293 32.31312,-12.10611 0.4839,0.50451 3.44648,7.13244 6.58351,14.72872 L 332.60731,400 326.6589,414.34151 c -3.49742,8.43221 -6.57632,14.40881 -7.47231,14.50486 -0.83815,0.0898 -15.26893,-5.59588 -32.0684,-12.63494 z" id="path2003" inkscape:export-filename="/Users/hz/Pictures/avatar-hz/hedzr-4-cube-512.png" inkscape:export-xdpi="62.52" inkscape:export-ydpi="62.52" />
  <path style="fill:#e6e6e6;stroke:#454545;stroke-width:1.06242" d="m 254.05095,391.4649 c -0.95716,-2.49432 -5.69635,-4.89885 -10.33761,-5.24501 l -4.48113,-0.33421 -13.09974,-31.64159 c -7.20486,-17.40287 -12.98429,-31.72108 -12.8432,-31.81825 0.1411,-0.0972 14.32143,-5.99691 31.51183,-13.11055 31.15675,-12.89312 31.26226,-12.92737 33.46614,-10.86336 2.75183,2.57719 7.27501,4.33691 11.14758,4.33691 2.87312,0 3.31544,0.87329 15.94335,31.47753 7.14353,17.31265 12.59535,31.81955 12.11517,32.23756 -0.48019,0.41802 -9.7177,4.38536 -20.52779,8.81632 -10.81009,4.43096 -24.75987,10.19883 -30.99951,12.81749 -8.65097,3.63066 -11.47546,4.42069 -11.89509,3.32716 z" id="path2042" inkscape:export-filename="/Users/hz/Pictures/avatar-hz/hedzr-4-cube-512.png" inkscape:export-xdpi="62.52" inkscape:export-ydpi="62.52" />
  <path style="fill:#e6e6e6;stroke:#454545;stroke-width:1.06242" d="m 320.81058,360.42497 c -0.88868,-2.19124 -6.79131,-16.41435 -13.11696,-31.60691 l -11.50119,-27.62284 2.45385,-2.48777 2.45385,-2.48777 31.78975,13.15674 31.78975,13.15674 -6.15139,14.82904 -6.15139,14.82904 -14.16983,6.03459 c -7.79341,3.31903 -14.53227,6.06804 -14.97525,6.1089 -0.44298,0.0409 -1.53252,-1.71853 -2.42119,-3.90976 z" id="path2081" inkscape:export-filename="/Users/hz/Pictures/avatar-hz/hedzr-4-cube-512.png" inkscape:export-xdpi="62.52" inkscape:export-ydpi="62.52" />
  <path style="fill:#e6e6e6;stroke:#454545;stroke-width:1.06242" d="m 334.13015,305.34823 c -24.38579,-10.14108 -31.36534,-13.46286 -31.44961,-14.96781 l -0.2656,-4.7435 c -0.0865,-1.5451 -1.5053,-4.25232 -3.15285,-6.01603 l -2.99555,-3.20674 12.4699,-30.10615 c 6.85843,-16.55838 12.89263,-30.78005 13.40931,-31.60371 0.76004,-1.21162 6.96403,0.99854 32.49112,11.57491 l 31.55171,13.07248 v 3.63438 c 0,3.93264 1.29472,7.06005 4.30566,10.40039 1.8641,2.06804 1.57501,2.94836 -10.81563,32.93493 -7.00201,16.94555 -13.06308,31.09143 -13.46904,31.43528 -0.40597,0.34385 -14.84171,-5.23994 -32.07942,-12.40843 z" id="path2120" inkscape:export-filename="/Users/hz/Pictures/avatar-hz/hedzr-4-cube-512.png" inkscape:export-xdpi="62.52" inkscape:export-ydpi="62.52" />
  <path style="fill:#e6e6e6;stroke:#454545;stroke-width:1.06242" d="m 385.12616,326.49759 c -7.88844,-3.28616 -14.46623,-6.06466 -14.61729,-6.17445 -0.15107,-0.10978 5.64663,-14.46572 12.88377,-31.90209 l 13.15844,-31.70247 h 3.46642 3.46642 l 13.14104,31.70238 c 7.22756,17.43631 13.01739,31.79284 12.86627,31.9034 -0.5413,0.39604 -29.32109,12.21148 -29.66802,12.18011 -0.19493,-0.0176 -6.8086,-2.72073 -14.69705,-6.00688 z" id="path2159" inkscape:export-filename="/Users/hz/Pictures/avatar-hz/hedzr-4-cube-512.png" inkscape:export-xdpi="62.52" inkscape:export-ydpi="62.52" />
  <path style="fill:#e6e6e6;stroke:#454545;stroke-width:1.06242" d="m 432.18205,314.7007 c -0.92024,-2.16905 -6.83212,-16.37401 -13.13751,-31.56657 -11.16418,-26.89959 -11.41407,-27.67848 -9.54392,-29.74768 3.01367,-3.33442 4.3108,-6.46392 4.3108,-10.40039 v -3.63438 l 31.4333,-13.02342 c 17.28831,-7.16288 31.82284,-12.61064 32.29895,-12.10612 0.47611,0.50452 6.56881,14.69851 13.53934,31.54222 l 12.67369,30.62491 -3.00717,3.21918 c -1.65394,1.77055 -3.07795,4.48337 -3.16447,6.02847 -0.0865,1.54511 -0.20604,3.68218 -0.2656,4.74903 -0.0833,1.49156 -5.01777,3.97022 -21.35664,10.72772 -11.68659,4.83339 -25.94168,10.7551 -31.67797,13.15937 l -10.42964,4.37139 z" id="path2198" inkscape:export-filename="/Users/hz/Pictures/avatar-hz/hedzr-4-cube-512.png" inkscape:export-xdpi="62.52" inkscape:export-ydpi="62.52" />
  <path style="fill:#e6e6e6;stroke:#454545;stroke-width:1.06242" d="m 461.79298,358.22159 -14.16983,-6.03035 -6.15139,-14.82904 -6.15139,-14.82904 31.78975,-13.15674 31.78975,-13.15674 2.45454,2.48777 2.45454,2.48777 -12.9873,31.29498 c -7.14302,17.21224 -13.4084,31.40001 -13.92307,31.52837 -0.51467,0.12836 -7.31219,-2.48028 -15.1056,-5.79698 z" id="path2237" inkscape:export-filename="/Users/hz/Pictures/avatar-hz/hedzr-4-cube-512.png" inkscape:export-xdpi="62.52" inkscape:export-ydpi="62.52" />
  <path style="fill:#e6e6e6;stroke:#454545;stroke-width:1.06242" d="m 513.96617,379.78649 c -17.07957,-7.07003 -31.33668,-13.13752 -31.68247,-13.48331 -0.34579,-0.34579 5.22987,-14.77798 12.39034,-32.07152 12.60551,-30.44403 13.11193,-31.44282 15.94265,-31.44282 3.84313,0 8.37167,-1.76667 11.11552,-4.3364 2.20314,-2.06332 2.3116,-2.02815 33.46614,10.85141 17.19071,7.10679 31.37948,13.0145 31.5306,13.12826 0.15111,0.11376 -5.66102,14.5055 -12.91585,31.98165 -10.05875,24.23049 -13.58976,31.70131 -14.87173,31.46523 -3.1363,-0.57757 -10.08015,1.94326 -12.00526,4.35827 l -1.91619,2.40384 z" id="path2276" inkscape:export-filename="/Users/hz/Pictures/avatar-hz/hedzr-4-cube-512.png" inkscape:export-xdpi="62.52" inkscape:export-ydpi="62.52" />
  <path style="fill:#e6e6e6;stroke:#454545;stroke-width:1.06242" d="m 589.42401,471.94857 c -0.92257,-2.17463 -6.83636,-16.38416 -13.14175,-31.57672 -11.16418,-26.89959 -11.41407,-27.67848 -9.54392,-29.74768 5.87812,-6.50375 5.87594,-14.75976 -0.006,-21.24834 -1.87757,-2.07135 -1.59748,-2.91369 11.12782,-33.46614 7.17963,-17.23771 13.48459,-31.25782 14.01101,-31.1558 0.74209,0.14382 119.29844,49.10766 165.36616,68.29633 7.90199,3.29142 8.23373,3.57016 8.23373,6.91809 0,3.15096 -0.48828,3.69701 -5.04648,5.64359 -2.77557,1.1853 -39.94688,16.5878 -82.60292,34.22778 -42.65605,17.63999 -79.61839,32.97047 -82.13854,34.06773 l -4.58209,1.99504 z" id="path2315" inkscape:export-filename="/Users/hz/Pictures/avatar-hz/hedzr-4-cube-512.png" inkscape:export-xdpi="62.52" inkscape:export-ydpi="62.52" />
  <path style="fill:#e6e6e6;stroke:#454545;stroke-width:1.06242" d="m 589.42401,471.94857 c -0.92257,-2.17463 -6.83636,-16.38416 -13.14175,-31.57672 -11.16418,-26.89959 -11.41407,-27.67848 -9.54392,-29.74768 5.87812,-6.50375 5.87594,-14.75976 -0.006,-21.24834 -1.87757,-2.07135 -1.59748,-2.91369 11.12782,-33.46614 7.17963,-17.23771 13.48459,-31.25782 14.01101,-31.1558 0.74209,0.14382 119.29844,49.10766 165.36616,68.29633 7.90199,3.29142 8.23373,3.57016 8.23373,6.91809 0,3.15096 -0.48828,3.69701 -5.04648,5.64359 -2.77557,1.1853 -39.94688,16.5878 -82.60292,34.22778 -42.65605,17.63999 -79.61839,32.97047 -82.13854,34.06773 l -4.58209,1.99504 z" id="path2354" inkscape:export-filename="/Users/hz/Pictures/avatar-hz/hedzr-4-cube-512.png" inkscape:export-xdpi="62.52" inkscape:export-ydpi="62.52" />
  <path style="fill:#e6e6e6;stroke:#454545;stroke-width:1.06242" d="m 522.08256,501.87581 c -1.96333,-2.36736 -7.55929,-4.66465 -11.36258,-4.66465 -2.96612,0 -3.28825,-0.63123 -16.04594,-31.44282 -7.16047,-17.29354 -12.74585,-31.71601 -12.41194,-32.04992 0.33392,-0.33392 14.59103,-6.41097 31.68247,-13.50458 l 31.07535,-12.89746 1.91619,2.4251 c 1.92085,2.43098 8.85337,4.95997 12.00526,4.37953 1.28197,-0.23608 4.81298,7.23474 14.87173,31.46523 7.25483,17.47615 13.06696,31.86859 12.91585,31.98319 -0.25088,0.19027 -59.07514,24.54996 -61.91888,25.64121 -0.6761,0.25944 -1.90348,-0.34123 -2.72751,-1.33483 z" id="path2356" inkscape:export-filename="/Users/hz/Pictures/avatar-hz/hedzr-4-cube-512.png" inkscape:export-xdpi="62.52" inkscape:export-ydpi="62.52" />
  <path style="fill:#e6e6e6;stroke:#454545;stroke-width:1.06242" d="m 478.13823,425.76361 c -0.78904,-1.89907 -3.39412,-8.1698 -5.78908,-13.93495 -2.39495,-5.76516 -4.35446,-11.07754 -4.35446,-11.80529 0,-1.64263 10.51061,-27.30392 11.69933,-28.56351 0.47613,-0.50452 15.01067,4.94323 32.29898,12.10611 l 31.43329,13.02342 V 400 v 3.41061 l -31.14248,12.90293 c -17.12836,7.09661 -31.49539,12.90293 -31.92672,12.90293 -0.43133,0 -1.42982,-1.55379 -2.21886,-3.45286 z" id="path2395" inkscape:export-filename="/Users/hz/Pictures/avatar-hz/hedzr-4-cube-512.png" inkscape:export-xdpi="62.52" inkscape:export-ydpi="62.52" />
  <path style="fill:#e6e6e6;stroke:#454545;stroke-width:1.06242" d="m 444.35591,573.44915 -30.54449,-12.79829 v -3.63565 c 0,-3.94052 -1.29868,-7.07137 -4.31464,-10.40166 -1.87523,-2.07069 -1.59909,-2.90998 10.83647,-32.93493 7.0184,-16.94555 13.08351,-31.10018 13.47802,-31.45472 0.3945,-0.35455 14.82087,5.23508 32.05858,12.42141 24.25695,10.1126 31.36579,13.50031 31.44961,14.98726 0.0596,1.05667 0.17909,3.1854 0.2656,4.73051 0.0865,1.5451 1.51085,4.25826 3.16518,6.02923 l 3.00788,3.21994 -12.92638,31.15536 c -7.86816,18.96397 -13.51431,31.21885 -14.42886,31.3176 -0.82636,0.0892 -15.2475,-5.597 -32.04697,-12.63606 z" id="path2434" inkscape:export-filename="/Users/hz/Pictures/avatar-hz/hedzr-4-cube-512.png" inkscape:export-xdpi="62.52" inkscape:export-ydpi="62.52" />
  <path style="fill:#e6e6e6;stroke:#454545;stroke-width:1.06242" d="m 395.72571,541.30239 c -0.45826,-1.16917 -6.38088,-15.46874 -13.16138,-31.77682 -6.7805,-16.30808 -12.20502,-29.74103 -12.05449,-29.85101 0.15053,-0.10997 6.8474,-2.91911 14.88193,-6.24252 L 400,467.38947 l 14.60823,6.04257 c 8.03453,3.32341 14.73188,6.13303 14.883,6.2436 0.15112,0.11056 -5.63376,14.45516 -12.85529,31.8769 l -13.13005,31.67587 -3.47349,0.0999 c -2.54491,0.0732 -3.69624,-0.46842 -4.30669,-2.02589 z" id="path2473" inkscape:export-filename="/Users/hz/Pictures/avatar-hz/hedzr-4-cube-512.png" inkscape:export-xdpi="62.52" inkscape:export-ydpi="62.52" />
  <path style="fill:#e6e6e6;stroke:#454545;stroke-width:1.06242" d="m 466.26526,490.40996 -30.94589,-12.9407 6.15268,-14.83025 6.15269,-14.83025 14.59204,-6.12856 c 8.02563,-3.37071 14.87978,-5.84106 15.23146,-5.48965 0.35167,0.35141 6.42293,14.58337 13.49167,31.62658 l 12.85227,30.98765 -2.2281,2.37208 c -1.22545,1.30465 -2.70618,2.32747 -3.29051,2.27294 -0.58433,-0.0545 -14.98807,-5.92246 -32.00831,-13.03984 z" id="path2512" inkscape:export-filename="/Users/hz/Pictures/avatar-hz/hedzr-4-cube-512.png" inkscape:export-xdpi="62.52" inkscape:export-ydpi="62.52" />
  <path style="fill:none;stroke:#454545;stroke-width:1.06242" d="m 377.15803,453.49778 c -11.10225,-4.65466 -20.71167,-9.03409 -21.35426,-9.73206 -0.64258,-0.69797 -5.08922,-10.84827 -9.88142,-22.55622 l -8.71309,-21.28717 8.71317,-21.20951 c 4.79225,-11.66522 9.23889,-21.77959 9.88143,-22.47637 1.44847,-1.57074 41.86925,-18.38784 44.19614,-18.38784 2.32689,0 42.74768,16.8171 44.19614,18.38784 0.64254,0.69678 5.09367,10.82196 9.89138,22.50041 l 8.72313,21.23354 -8.71914,21.26314 c -4.79553,11.69473 -9.24665,21.83323 -9.89138,22.53001 -1.72166,1.86064 -42.13275,18.40438 -44.68291,18.29255 -1.19529,-0.0524 -11.25693,-3.90366 -22.35919,-8.55832 z" id="path2590" inkscape:export-filename="/Users/hz/Pictures/avatar-hz/hedzr-4-cube-512.png" inkscape:export-xdpi="62.52" inkscape:export-ydpi="62.52" />
  <path style="fill:#e6e6e6;stroke:#454545;stroke-width:1.06242" d="m 387.251,456.37899 c -6.13546,-2.50075 -15.45817,-6.43261 -20.71714,-8.73746 -11.03067,-4.83442 -9.55365,-2.68511 -21.14893,-30.77515 l -7.02046,-17.00736 7.33953,-17.45939 c 4.03674,-9.60267 8.12212,-19.28037 9.07861,-21.50601 1.95391,-4.54649 4.01123,-5.64154 30.5357,-16.25337 L 400,338.76646 l 14.68169,5.87379 c 26.52447,10.61183 28.58179,11.70688 30.5357,16.25337 0.9565,2.22564 5.05183,11.92718 9.10073,21.55898 l 7.36166,17.51237 -6.86874,16.48498 c -11.97316,28.73561 -10.48484,26.32263 -18.43635,29.89024 -10.3756,4.65521 -35.86328,14.76131 -36.99083,14.6672 -0.53762,-0.0449 -5.99741,-2.12764 -12.13286,-4.6284 z" id="path2705" inkscape:export-filename="/Users/hz/Pictures/avatar-hz/hedzr-4-cube-512.png" inkscape:export-xdpi="62.52" inkscape:export-ydpi="62.52" />
  <path style="fill:#999;stroke:#454545;stroke-width:1.06242" d="m 31.373129,389.03416 c -2.110914,-1.75849 -1.452701,-3.44398 47.579376,-121.83628 49.034745,-118.39875 49.760355,-120.05313 52.655335,-120.05313 2.8751,0 3.41515,1.15726 26.27705,56.30811 27.67998,66.77371 46.63237,113.74657 46.62525,115.55906 -0.003,0.71875 -10.87931,5.80682 -24.16999,11.30684 -155.730732,64.44532 -146.470276,60.79531 -148.967021,58.7154 z" id="path2935" />
  <path style="fill:#999;stroke:#454545;stroke-width:1.06242" d="m 203.98406,471.98803 c -15.39609,-5.9128 -149.270506,-61.10121 -162.284193,-66.90006 -7.501594,-3.34268 -8.267602,-6.32105 -2.351318,-9.14233 2.066668,-0.98553 36.608501,-15.37195 76.759631,-31.96983 40.15112,-16.59788 77.06579,-31.8615 82.03259,-33.91916 8.05068,-3.33526 9.17038,-3.5604 10.31927,-2.07498 1.46546,1.89474 15.28289,34.09864 20.99862,48.94091 l 3.7961,9.85752 -2.68316,4.57846 c -3.47594,5.93125 -3.47285,11.35691 0.01,17.29972 l 2.69302,4.59529 -4.6816,11.96551 c -4.86095,12.42392 -18.46156,45.04896 -19.66904,47.18194 -0.50531,0.89262 -1.82811,0.78203 -4.93978,-0.41299 z" id="path2974" />
  <path style="fill:#999;stroke:#454545;stroke-width:1.06242" d="M 127.31703,649.47525 C 126.37152,647.24394 103.93327,593.06773 77.45425,529.08367 31.329732,417.62809 29.38953,412.66932 31.193012,410.84903 c 1.806565,-1.82341 3.121304,-1.39189 32.622266,10.70711 94.452252,38.73697 140.691862,58.26927 140.695692,59.43194 0.006,1.80397 -18.85432,48.54839 -46.62532,115.55906 -21.83283,52.68203 -23.51311,56.32991 -26.09254,56.64657 -2.31607,0.28434 -3.03191,-0.31033 -4.47608,-3.71846 z" id="path3013" />
  <path style="fill:#999;stroke:#454545;stroke-width:1.06242" d="m 142.28044,657.54393 c -1.75907,-1.94376 -0.35366,-5.59869 33.76945,-87.82058 30.68138,-73.9288 35.88258,-85.74371 37.61284,-85.44026 1.10436,0.19368 14.99227,5.64379 30.86202,12.11136 l 28.85411,11.75921 0.7086,4.72529 c 1.0343,6.89729 6.01319,11.99389 12.42262,12.71632 3.98081,0.4487 5.13804,1.07488 6.18762,3.34818 2.58951,5.60864 23.37136,57.55844 23.37136,58.42299 0,0.48964 -1.79283,1.62034 -3.98407,2.51266 -2.19123,0.89231 -31.71314,13.20522 -65.60425,27.36203 -33.8911,14.1568 -70.78773,29.47269 -81.99251,34.0353 -19.8967,8.10199 -20.41517,8.24832 -22.20779,6.2675 z" id="path3052" />
  <path style="fill:#999;stroke:#454545;stroke-width:1.06242" d="M 265.8407,720.54329 C 150.95337,672.95802 146.03616,670.80982 146.31879,668.32741 c 0.26859,-2.35906 4.91682,-4.50569 52.35319,-24.17761 63.11482,-26.17379 120.67703,-49.46298 121.11718,-49.00299 0.17783,0.18586 12.04734,28.54509 26.37669,63.02052 14.32935,34.47543 30.32541,72.96149 35.54681,85.52457 8.63412,20.77436 9.34762,23.01026 7.88243,24.70119 -0.88604,1.02258 -2.13451,1.84077 -2.77436,1.81819 -0.63984,-0.0225 -55.08086,-22.37316 -120.98003,-49.66799 z" id="path3091" />
  <path style="fill:#999;stroke:#454545;stroke-width:1.06242" d="M 396.36794,761.92006 C 392.21162,753.88263 326.16275,591.906 326.81547,591.3513 c 0.22493,-0.19116 13.92652,-5.9855 30.44797,-12.87633 l 30.03901,-12.52876 2.52763,2.37458 c 2.91024,2.73403 9.48707,4.50762 13.35717,3.60205 1.46082,-0.34182 4.23944,-1.80085 6.17471,-3.24229 l 3.51866,-2.62081 10.82397,4.473 c 31.7938,13.13879 48.78762,20.64321 49.20402,21.72836 0.25645,0.66827 -12.24621,32.02553 -27.78369,69.68281 -15.53747,37.65728 -31.4492,76.23451 -35.35941,85.72719 -6.17558,14.99223 -7.41989,17.26004 -9.47262,17.26427 -1.52501,0.003 -2.91708,-1.06631 -3.92495,-3.01531 z" id="path3130" />
  <path style="fill:#999;stroke:#454545;stroke-width:1.06242" d="m 410.41088,768.39309 c -1.45908,-1.69016 -0.50052,-4.51598 10.54132,-31.07569 6.6805,-16.06906 22.67416,-54.55512 35.54148,-85.52457 12.86732,-30.96946 23.53996,-56.45979 23.71698,-56.64519 0.44124,-0.46212 64.02195,25.24489 123.7734,50.04417 45.19879,18.75933 49.42894,20.72739 49.7144,23.12943 0.24155,2.03254 -0.35825,2.88621 -2.65604,3.78022 -1.63243,0.63514 -55.63199,22.97891 -119.99903,49.65282 -64.36704,26.67393 -117.48019,48.49804 -118.02923,48.49804 -0.54904,0 -1.72051,-0.83665 -2.60328,-1.85923 z" id="path3169" />
  <path style="fill:#999;stroke:#454545;stroke-width:1.06242" d="m 648.07437,656.50529 c -4.09031,-1.69157 -40.90306,-17.00734 -81.80611,-34.03502 -40.90305,-17.02769 -76.16202,-31.69161 -78.35325,-32.5865 -2.19124,-0.89489 -3.98407,-2.02303 -3.98407,-2.50698 0,-1.09315 6.19629,-16.74196 16.66643,-42.09127 7.97906,-19.31816 8.02056,-19.38912 11.34162,-19.39308 6.84923,-0.008 13.15671,-6.04098 14.16343,-13.5467 0.53208,-3.96695 0.76477,-4.16031 9.20049,-7.64576 35.95555,-14.85601 52.23984,-21.1646 52.89355,-20.49112 0.89201,0.91898 71.03329,169.97226 71.03329,171.20319 0,0.45778 -0.83666,1.58304 -1.85923,2.50058 -1.70131,1.52654 -2.49089,1.40701 -9.29615,-1.40734 z" id="path3208" />
  <path style="fill:#999;stroke:#454545;stroke-width:1.06242" d="M 663.73193,648.39561 C 647.68285,610.8659 594.55749,480.85327 594.98719,480.158 c 0.31587,-0.51109 2.11082,-1.36799 3.98878,-1.90422 1.87796,-0.53624 18.47423,-7.29202 36.8806,-15.01285 18.40638,-7.72083 55.42232,-23.09927 82.25765,-34.1743 47.09396,-19.43583 48.85844,-20.06947 50.71552,-18.2124 1.85707,1.85708 0.19497,6.10038 -47.77274,121.96251 -46.70254,112.80621 -49.86083,120.05786 -52.41999,120.35975 -2.35094,0.27731 -3.02151,-0.37628 -4.90508,-4.78088 z" id="path3247" />
  <path style="fill:#999;stroke:#454545;stroke-width:1.06242" d="m 586.63187,462.30961 c -2.82393,-6.8068 -8.45853,-20.56561 -12.52135,-30.57512 l -7.38694,-18.19912 2.69399,-5.06669 c 3.39801,-6.39078 3.40034,-10.54219 0.01,-16.91944 l -2.68446,-5.04876 6.00292,-15.02979 c 7.12491,-17.83899 18.21511,-43.34381 19.30851,-44.40498 0.42604,-0.41348 6.03358,1.41038 12.4612,4.05302 53.15884,21.85561 146.9307,60.72922 152.72245,63.31188 8.67213,3.86708 9.61239,6.66781 3.25613,9.69891 -2.15335,1.02685 -40.28084,16.94186 -84.72775,35.36668 -44.44692,18.42482 -81.52971,33.87986 -82.40621,34.34455 -1.26826,0.67239 -2.64188,-1.68185 -6.72802,-11.53114 z" id="path3286" />
  <path style="fill:#999;stroke:#454545;stroke-width:1.06242" d="M 763.37473,389.78607 C 746.73447,383.14568 595.79424,320.31988 595.15728,319.769 c -0.47227,-0.40845 15.16203,-39.41599 34.74288,-86.68344 34.96812,-84.41177 35.65351,-85.94081 38.52289,-85.94081 2.87626,0 3.68873,1.85263 52.62171,119.99071 46.60817,112.52532 49.59214,120.11026 47.96126,121.91235 -1.96347,2.16962 -2.02443,2.17761 -5.63129,0.73826 z" id="path3325" />
  <path style="fill:#999;stroke:#454545;stroke-width:1.06242" d="m 565.69625,307.72577 c -41.48425,-16.88829 -39.26863,-15.84355 -39.26863,-18.51642 0,-7.25456 -6.00154,-14.02282 -13.1486,-14.8284 l -4.78158,-0.53895 -8.19891,-19.78953 c -9.57275,-23.10549 -16.65937,-41.63143 -16.12821,-42.16259 0.20557,-0.20557 33.82147,-14.27827 74.70199,-31.27267 40.88052,-16.99439 79.34814,-32.99216 85.4836,-35.55058 10.24123,-4.27049 11.30774,-4.51481 13.01461,-2.98135 1.02257,0.91869 1.85923,2.04489 1.85923,2.50267 0,1.23093 -70.14128,170.28421 -71.03329,171.20319 -0.41881,0.43147 -10.54391,-3.19794 -22.50021,-8.06537 z" id="path3364" />
  <path style="fill:#999;stroke:#454545;stroke-width:1.06242" d="M 444.44343,119.25631 C 412.18174,41.49077 409.00059,33.292227 410.43428,31.606906 c 0.8699,-1.022577 2.05013,-1.85923 2.62274,-1.85923 0.57262,0 53.68577,21.824867 118.02924,48.499704 64.34346,26.67484 118.32373,49.01861 119.95616,49.65283 2.30396,0.89511 2.89823,1.74435 2.65604,3.79555 -0.28866,2.44478 -6.70405,5.28674 -85.77256,37.99657 -47.00331,19.44479 -86.00756,35.35415 -86.67613,35.35415 -0.66856,0 -17.23142,-38.60558 -36.80634,-85.79017 z" id="path3403" />
  <path style="fill:#999;stroke:#454545;stroke-width:1.06242" d="m 357.01585,221.43178 c -15.75283,-6.68491 -29.09767,-12.61054 -29.65519,-13.16807 -0.92966,-0.92965 8.10798,-23.38816 58.46982,-145.29733 14.72832,-35.652328 13.80076,-35.240093 23.93503,-10.637477 3.91021,9.492676 19.82194,48.069907 35.35941,85.727187 15.53748,37.65728 28.04014,69.01454 27.78369,69.68281 -0.41656,1.08557 -17.40525,8.58739 -49.24028,21.74341 l -10.86022,4.48805 -3.29832,-2.77535 c -2.73295,-2.29963 -4.36303,-2.77536 -9.50979,-2.77536 -5.07555,0 -6.78872,0.48573 -9.368,2.65605 -1.73609,1.46082 -3.5656,2.62329 -4.06558,2.58325 -0.49998,-0.0401 -13.79773,-5.54226 -29.55057,-12.22717 z" id="path3442" />
  <path style="fill:#999;stroke:#454545;stroke-width:1.06242" d="m 309.69456,201.71613 c -4.38248,-1.76776 -33.78487,-13.89414 -65.33865,-26.94749 -107.39204,-44.42658 -97.70779,-40.17096 -98.03666,-43.08094 -0.28281,-2.50242 4.33964,-4.52025 118.45949,-51.710681 65.31459,-27.008656 119.60826,-49.417236 120.6526,-49.796846 1.12799,-0.410019 2.70439,0.03886 3.88333,1.105773 1.9274,1.74428 1.86799,2.076715 -2.06388,11.549834 -53.34105,128.51558 -67.31231,161.47051 -68.60585,161.82517 -0.54024,0.14812 -4.56791,-1.17704 -8.95038,-2.94482 z" id="path3481" />
  <path style="fill:#999;stroke:#454545;stroke-width:1.06242" d="m 211.58609,315.80345 c -0.95183,-1.54307 -70.81584,-170.51986 -70.81584,-171.27892 0,-0.4229 0.83666,-1.51727 1.85923,-2.43193 2.09939,-1.87783 -8.34874,-5.98183 109.42895,42.98337 35.20585,14.63657 64.01063,27.02502 64.01063,27.52989 0,0.8944 -20.74329,52.75691 -23.4285,58.57608 -0.91687,1.98698 -2.15421,2.92165 -3.86779,2.92165 -7.02329,0 -13.67419,5.75597 -14.80225,12.8105 -0.61049,3.8178 -1.03774,4.17624 -9.81436,8.23368 -9.39747,4.34448 -50.4719,21.4525 -51.50502,21.4525 -0.31545,0 -0.79472,-0.35857 -1.06505,-0.79682 z" id="path3520" />
  <path style="fill:#b3b3b3;stroke:#454545;stroke-width:1.06242" d="m 349.00398,310.15504 c -44.56326,-18.2266 -45.68393,-18.81139 -45.68393,-23.83879 0,-2.29144 -0.99927,-4.73787 -2.81819,-6.89953 l -2.81819,-3.34923 2.45872,-6.02843 c 5.97625,-14.65293 22.53544,-53.87626 22.90496,-54.2544 0.61705,-0.63146 13.39037,4.20485 38.70564,14.65495 l 22.84196,9.42912 0.57319,4.14679 c 0.31525,2.28073 1.64927,5.88793 2.96449,8.016 l 2.3913,3.86921 -3.8216,9.89824 c -6.83192,17.69517 -20.94823,50.80318 -21.62942,50.72906 -0.36513,-0.0397 -7.59615,-2.90758 -16.06893,-6.37299 z" id="path3633" />
  <path style="fill:#b3b3b3;stroke:#454545;stroke-width:1.06242" d="m 244.7098,489.4653 -30.45621,-12.67582 2.15128,-4.92861 c 1.1832,-2.71073 5.62976,-13.29581 9.88124,-23.5224 4.25148,-10.2266 9.23579,-21.7809 11.07625,-25.67625 3.14441,-6.65514 3.60275,-7.12576 7.59723,-7.80063 2.33801,-0.395 5.68842,-1.92775 7.44534,-3.40611 l 3.19442,-2.68791 25.71958,10.71499 c 14.14577,5.89324 27.74659,11.56994 30.22405,12.61489 2.47746,1.04494 4.50933,2.36341 4.51527,2.92992 0.0165,1.5674 -15.6129,40.16748 -20.70468,51.13473 -4.35356,9.37719 -4.6129,9.68815 -8.61963,10.33566 -2.27206,0.36718 -5.80433,1.78714 -7.84948,3.15548 l -3.71846,2.48788 z" id="path3709" />
  <path style="fill:#b3b3b3;stroke:#454545;stroke-width:1.06242" d="m 453.65206,575.96736 c -42.16025,-17.33384 -38.17034,-15.28008 -38.8202,-19.98228 -0.31525,-2.28106 -1.65386,-5.89596 -2.97468,-8.0331 l -2.4015,-3.8857 4.70375,-12.00658 c 4.84388,-12.36426 19.66078,-47.77455 20.22779,-48.34156 0.82004,-0.82004 54.88042,21.62966 59.71706,24.79875 1.86682,1.22319 2.57567,2.65494 2.57567,5.2024 0,2.19906 0.99425,4.69636 2.65604,6.67129 1.46082,1.73609 2.65604,3.48551 2.65604,3.88761 0,0.98349 -16.8923,41.47792 -21.6157,51.81743 -2.06878,4.52855 -4.38623,8.21962 -5.14988,8.20237 -0.76366,-0.0172 -10.47213,-3.76603 -21.57439,-8.33063 z" id="path3748" />
  <path style="fill:#b3b3b3;stroke:#454545;stroke-width:1.06242" d="m 513.37723,378.40041 c -28.72572,-12.06505 -29.50057,-12.46903 -28.87389,-15.0538 0.93306,-3.8484 18.301,-46.18232 21.90235,-53.38645 2.41089,-4.82273 3.57652,-6.1089 5.53636,-6.1089 1.36538,0 4.79239,-1.22817 7.61557,-2.72927 l 5.13305,-2.72927 5.91496,2.23851 c 3.25322,1.23117 16.9913,6.81393 30.52905,12.40613 l 24.6141,10.16762 -2.15246,4.93137 c -1.18386,2.71226 -5.63095,13.29859 -9.88243,23.52518 -4.25148,10.2266 -9.23579,21.7809 -11.07625,25.67625 -3.14441,6.65515 -3.60275,7.12576 -7.59723,7.80063 -2.33801,0.395 -5.6181,1.86858 -7.28908,3.27462 -1.67098,1.40603 -3.44722,2.51788 -3.94719,2.47078 -0.49998,-0.0471 -14.19209,-5.66464 -30.42691,-12.4834 z" id="path3787" />
  <path style="fill:#ccc;stroke:#454545;stroke-width:1.06242" d="m 254.44887,389.96144 c 0,-1.45143 -5.70406,-3.99432 -10.77211,-4.80225 l -3.8664,-0.61637 -11.86185,-28.91359 c -6.52402,-15.90247 -11.95545,-29.81904 -12.06986,-30.9257 -0.21825,-2.11132 4.08534,-4.10222 43.20074,-19.98524 l 15.7859,-6.40995 5.47769,2.77146 c 3.01273,1.5243 6.57916,2.77146 7.9254,2.77146 2.04956,0 3.19106,1.59853 7.0176,9.82736 5.02996,10.81669 20.78308,49.85085 20.78308,51.49771 0,0.56937 -1.79283,1.75965 -3.98407,2.64506 -2.19123,0.88542 -14.98008,6.15469 -28.41965,11.70949 -28.03172,11.58599 -29.21647,12.00896 -29.21647,10.43056 z" id="path3826" />
  <path style="fill:#ccc;stroke:#454545;stroke-width:1.06242" d="m 322.52472,583.41858 c -1.53247,-2.86344 -24.51675,-58.4493 -24.51675,-59.29202 0,-0.41208 1.04422,-1.86076 2.32049,-3.21929 1.27627,-1.35853 2.59101,-4.4843 2.92165,-6.94615 0.56155,-4.18119 0.98992,-4.66847 6.50191,-7.39595 6.29976,-3.11729 54.18963,-23.16033 55.34582,-23.16353 0.89975,-0.002 18.63264,41.95374 23.29985,55.12772 l 2.02901,5.72723 -2.34269,3.79055 c -1.28848,2.0848 -2.60062,5.66095 -2.91587,7.947 l -0.57319,4.15646 -12.749,5.25094 c -50.29396,20.71461 -48.2727,19.97624 -49.32123,18.01704 z" id="path3902" />
  <path style="fill:#ccc;stroke:#454545;stroke-width:1.06242" d="m 519.08921,498.72585 c -2.57531,-1.41741 -5.79552,-2.57711 -7.15602,-2.57711 -1.94905,0 -3.1213,-1.29554 -5.5275,-6.1089 -3.59952,-7.20045 -20.96841,-49.53556 -21.90295,-53.38645 -0.62793,-2.58748 0.13704,-2.98159 29.6321,-15.26637 l 30.27666,-12.61033 3.18899,2.68336 c 1.75394,1.47584 5.10191,3.00654 7.43992,3.40154 3.99009,0.67413 4.45462,1.14929 7.57026,7.74355 5.37765,11.38181 21.20689,50.06599 21.47346,52.47775 0.21597,1.95406 -3.22644,3.65926 -28.86512,14.2983 -16.01068,6.6438 -29.63618,12.04411 -30.27888,12.0007 -0.6427,-0.0434 -3.27562,-1.23863 -5.85092,-2.65604 z" id="path3941" />
  <path style="fill:#ccc;stroke:#454545;stroke-width:1.06242" d="m 430.44453,307.63186 c -2.21769,-5.29314 -7.86446,-19.06302 -12.54838,-30.59974 l -8.51621,-20.97585 2.43937,-3.94698 c 1.34165,-2.17084 2.6973,-5.80504 3.01255,-8.076 0.65259,-4.70102 -3.37569,-2.60455 35.10174,-18.26826 28.303,-11.52182 26.84626,-11.21044 28.90439,-6.17834 0.91151,2.22865 6.49407,15.60863 12.40567,29.7333 5.9116,14.12466 10.74837,26.00783 10.74837,26.40705 0,0.39922 -1.19522,2.14629 -2.65604,3.88238 -1.69347,2.01257 -2.65604,4.46572 -2.65604,6.76898 0,2.61768 -0.68635,4.06217 -2.49242,5.24555 -1.37082,0.8982 -15.36656,7.0328 -31.10163,13.63245 l -28.60921,11.99936 z" id="path3980" />
  <path style="fill:#ccc;stroke:#454545;stroke-width:1.06242" d="m 388.84462,455.69742 c -24.59402,-9.93517 -30.09472,-12.71313 -32.18347,-16.25329 -1.10197,-1.8677 -4.78461,-10.07243 -8.18364,-18.23273 -3.39903,-8.16029 -6.7884,-16.29375 -7.53192,-18.07435 -1.26927,-3.03963 -0.81987,-4.49956 7.35492,-23.89336 10.15463,-24.09075 7.14413,-21.26382 34.40973,-32.3115 l 17.22813,-6.98063 17.29509,6.93727 c 27.126,10.88055 24.32466,8.25423 34.47261,32.31883 6.75484,16.01825 8.47791,21.10594 7.77458,22.95584 -3.20303,8.42461 -15.25156,36.22598 -16.57479,38.24548 -1.64772,2.51474 -12.09201,7.475 -32.22164,15.30289 -6.10243,2.37308 -11.12235,4.3063 -11.15538,4.29602 -0.033,-0.0103 -4.84092,-1.94997 -10.68422,-4.31047 z" id="path4019" />
</svg>
